<!DOCTYPE svg PUBLIC "-//W3C//DTD SVG 20010904//EN" "http://www.w3.org/TR/2001/REC-SVG-20010904/DTD/svg10.dtd">
<svg version="1.0" xmlns="http://www.w3.org/2000/svg" width="182px" height="240px" viewBox="0 0 1820 2400" preserveAspectRatio="xMidYMid meet">
<g id="layer101" fill="#524e4a" stroke="none">
 <path d="M0 1200 l0 -1200 910 0 910 0 0 1200 0 1200 -910 0 -910 0 0 -1200z"/>
 </g>
<g id="layer102" fill="#dec202" stroke="none">
 <path d="M1645 1827 c-93 -57 -195 -118 -225 -137 -30 -18 -104 -64 -165 -101 -262 -159 -624 -385 -980 -609 -50 -31 -132 -83 -182 -114 l-93 -58 0 -404 0 -404 910 0 910 0 0 552 0 552 -74 125 c-40 69 -105 180 -144 246 -82 140 -93 113 92 228 l126 79 0 74 c0 41 -1 74 -2 74 -2 0 -79 -47 -173 -103z"/>
 </g>
<g id="layer103" fill="#ffffff" stroke="none">
 <path d="M1645 1827 c-93 -57 -195 -118 -225 -137 -30 -18 -104 -64 -165 -101 -262 -159 -624 -385 -980 -609 -50 -31 -132 -83 -182 -114 l-93 -58 0 -99 c0 -78 3 -98 13 -93 18 12 281 183 457 299 85 56 216 142 290 190 221 144 363 236 400 260 19 12 67 42 105 67 39 25 91 57 116 72 l47 27 25 -43 c13 -24 35 -61 47 -83 12 -22 52 -92 90 -155 37 -63 103 -175 146 -249 l79 -135 3 118 3 119 -74 126 c-41 69 -106 180 -145 246 -82 140 -93 113 92 228 l126 79 0 74 c0 41 -1 74 -2 74 -2 0 -79 -47 -173 -103z"/>
 </g>

</svg>